<?xml version="1.0" encoding="UTF-8"?>
<svg id="Layer_2" data-name="Layer 2" xmlns="http://www.w3.org/2000/svg" viewBox="0 0 105.63 122.54">
  <defs>
    <style>
      .cls-1 {
        fill: #07c1e7;
      }

      .cls-1, .cls-2, .cls-3, .cls-4, .cls-5 {
        stroke-width: 0px;
      }

      .cls-2 {
        fill: #0c3c5f;
      }

      .cls-3 {
        fill: #2f92d0;
      }

      .cls-6 {
        fill: #264067;
        font-family: MVBoli, 'MV Boli';
        font-size: 19px;
        letter-spacing: .02em;
      }

      .cls-4 {
        fill: #006991;
      }

      .cls-5 {
        fill: #fff;
      }
    </style>
  </defs>
  <g id="Layer_1-2" data-name="Layer 1">
    <g>
      <circle class="cls-4" cx="52.82" cy="52.79" r="33.53"/>
      <circle class="cls-5" cx="50.9" cy="69.74" r="8.61"/>
      <path class="cls-1" d="M52.65,86.15c16.67,0,30.51-12.09,33.25-27.98-3.94-2.79-9.31-2.54-10.85.73-2.06,4.37-8.1,8.74-14.14,6.81-6.04-1.93-8.48,5.91-9.25,5.78-.77-.13-3.47,1.03-3.47,1.03,0,0-8.61-10.28-11.95-3.6-2.62,5.24-8.24,4.4-10.55,3.79,6.16,8.16,15.94,13.44,26.95,13.44Z"/>
      <path class="cls-5" d="M83.86,65.46c.51-1.24.92-2.49,1.27-3.75-.81-.37-1.72-.59-2.67-.59-3.54,0-6.41,2.87-6.41,6.41,0,.62.09,1.22.26,1.79-1.62-.9-3.48-1.41-5.46-1.41-6.24,0-11.3,5.06-11.3,11.3,0,.07,0,.13.01.2-2.58.67-4.48,3.01-4.48,5.8,0,.22.01.43.04.65-1.1-1.29-2.74-2.12-4.57-2.12-1.73,0-3.28.73-4.37,1.9,15.48,3.14,31.49-5.03,37.68-20.19Z"/>
      <text class="cls-6" transform="translate(10.32 116.88)"><tspan x="0" y="0">TravelVN</tspan></text>
      <path class="cls-2" d="M39.65,89.61c-2.76-.99-5.35-2.26-7.75-3.78-11.66-7.39-18.81-20.63-18.17-34.81h0S0,42.4,0,42.4l20.15,3.96c-.55,2.81-.73,5.61-.58,8.34.57,9.97,5.64,19.11,13.55,24.92,1.66,1.21,3.45,2.3,5.34,3.2l1.19,6.79Z"/>
      <path class="cls-3" d="M89.66,65.93c-.98,2.74-2.26,5.35-3.79,7.75-7.37,11.66-20.6,18.81-34.8,18.17h0l-8.61,13.73,2.83-14.43,1.12-5.72c2.82.55,5.61.73,8.34.58,9.98-.57,19.11-5.65,24.92-13.55,1.22-1.66,2.3-3.45,3.21-5.35l6.79-1.18Z"/>
      <path class="cls-2" d="M105.63,63.13l-20.15-3.96c.55-2.81.73-5.61.58-8.34-.57-9.99-5.65-19.14-13.57-24.95-1.66-1.21-3.45-2.29-5.34-3.19l-1.18-6.78c2.75.98,5.33,2.25,7.73,3.76,11.68,7.38,18.84,20.62,18.19,34.83l13.73,8.62Z"/>
      <path class="cls-3" d="M63.15,0l-3.94,20.09c-2.8-.55-5.58-.73-8.3-.58-9.99.57-19.12,5.64-24.94,13.55-1.21,1.67-2.3,3.46-3.2,5.36l-6.8,1.18c.99-2.76,2.26-5.35,3.79-7.76,7.38-11.66,20.6-18.81,34.8-18.16L63.15,0Z"/>
      <g>
        <path class="cls-5" d="M57.68,48.2l-5.36-1.53,14.89-8.51s9.36-.09,6.47,3.66-21.53,14.72-22.89,14.72-10.72,1.11-12.6,1.11c-.85-.21-.89-1.19-.89-1.19l-12.04-.51.85-.85,12.38-.43,2.94-1.83-28.6-2.81-1.23-1.36s-.17-1.28,1.23-.55,1.91.55,2.72.55,39.96.51,42.13-.47Z"/>
        <path class="cls-5" d="M36.92,48.42s-1.23-2.85-1.4-3.91,1.74-.94,1.74-.94l3.23,3.57-3.57,1.28Z"/>
        <path class="cls-5" d="M67.64,49.35l-9.79,4.26,19.45-1.62s3.11-.98,4.51-1.96c.34-.68-1.45-1.06-1.45-1.06l-.94.68-11.79-.3Z"/>
      </g>
    </g>
  </g>
</svg>