<svg xmlns="http://www.w3.org/2000/svg" viewBox="0 0 105.63 105.58"><defs><style>.cls-1{fill:#006991;}.cls-2{fill:#fff;}.cls-3{fill:#07c1e7;}.cls-4{fill:#0c3c5f;}.cls-5{fill:#2f92d0;}</style></defs><g id="Layer_2" data-name="Layer 2"><g id="Layer_1-2" data-name="Layer 1"><circle class="cls-1" cx="52.82" cy="52.79" r="33.53"/><circle class="cls-2" cx="50.9" cy="69.74" r="8.61"/><path class="cls-3" d="M52.65,86.15a33.77,33.77,0,0,0,33.26-28c-4-2.78-9.31-2.54-10.85.73C73,63.27,67,67.64,60.92,65.72s-8.48,5.91-9.25,5.78-3.47,1-3.47,1-8.61-10.28-12-3.6C33.63,74.17,28,73.32,25.7,72.71A33.7,33.7,0,0,0,52.65,86.15Z"/><path class="cls-2" d="M83.86,65.46a35.05,35.05,0,0,0,1.27-3.74,6.25,6.25,0,0,0-2.67-.59,6.41,6.41,0,0,0-6.41,6.41,6.27,6.27,0,0,0,.26,1.8,11.3,11.3,0,0,0-16.76,9.88c0,.07,0,.14,0,.21a6,6,0,0,0-4.48,5.79,4.63,4.63,0,0,0,0,.65,6,6,0,0,0-8.94-.22A33.53,33.53,0,0,0,83.86,65.46Z"/><path class="cls-4" d="M39.65,89.61A39.14,39.14,0,0,1,13.73,51h0L0,42.4l20.15,4a33.21,33.21,0,0,0,13,33.26,33.35,33.35,0,0,0,5.35,3.2Z"/><path class="cls-5" d="M89.66,65.93a38.68,38.68,0,0,1-3.79,7.75,39.16,39.16,0,0,1-34.8,18.17h0l-8.61,13.73,2.83-14.43,1.12-5.72a33.79,33.79,0,0,0,8.34.58,33.38,33.38,0,0,0,28.13-18.9Z"/><path class="cls-4" d="M105.63,63.13l-20.15-4a33.79,33.79,0,0,0,.58-8.34,33.39,33.39,0,0,0-13.57-25,34.79,34.79,0,0,0-5.33-3.19L66,15.92A39.09,39.09,0,0,1,91.9,54.51Z"/><path class="cls-5" d="M63.15,0,59.21,20.09A33.19,33.19,0,0,0,26,33.06a33.89,33.89,0,0,0-3.2,5.36L16,39.6A39.16,39.16,0,0,1,54.56,13.68Z"/><path class="cls-2" d="M57.68,48.2l-5.36-1.53,14.9-8.51s9.36-.08,6.46,3.66S52.15,56.54,50.79,56.54s-10.72,1.11-12.6,1.11a1.3,1.3,0,0,1-.89-1.19l-12-.51.85-.85,12.38-.43,2.94-1.83L12.83,50,11.6,48.67s-.17-1.27,1.23-.55a4.35,4.35,0,0,0,2.73.55C16.36,48.67,55.51,49.18,57.68,48.2Z"/><path class="cls-2" d="M36.92,48.42a27.6,27.6,0,0,1-1.41-3.92c-.17-1.06,1.75-.93,1.75-.93l3.23,3.57Z"/><path class="cls-2" d="M67.64,49.35l-9.79,4.26L77.3,52a22.18,22.18,0,0,0,4.51-2c.34-.68-1.45-1.06-1.45-1.06l-.93.68Z"/></g></g></svg>