<svg xmlns="http://www.w3.org/2000/svg" viewBox="0 0 105.63 105.58"><defs><style>.cls-1{fill:#005570;}.cls-2{fill:#f15f3d;}.cls-3{fill:#5fcae9;}.cls-4{fill:#fff;}.cls-5{fill:#083e5f;}.cls-6{fill:#2f92d0;}.cls-7{fill:#0c3c5f;}</style></defs><g id="Layer_2" data-name="Layer 2"><g id="Layer_1-2" data-name="Layer 1"><circle class="cls-1" cx="52.81" cy="52.79" r="33.53"/><circle class="cls-2" cx="50.9" cy="69.74" r="8.61"/><path class="cls-3" d="M52.65,86.15a33.77,33.77,0,0,0,33.26-28c-4-2.79-9.31-2.55-10.85.73C73,63.28,67,67.65,60.92,65.72s-8.48,5.91-9.25,5.78-3.47,1-3.47,1-8.61-10.28-12-3.6c-2.62,5.24-8.24,4.4-10.55,3.79A33.69,33.69,0,0,0,52.65,86.15Z"/><path class="cls-4" d="M83.86,65.47a35.22,35.22,0,0,0,1.27-3.75,6.25,6.25,0,0,0-2.67-.59,6.41,6.41,0,0,0-6.41,6.42,6.25,6.25,0,0,0,.26,1.79,11.3,11.3,0,0,0-16.76,9.89c0,.06,0,.13,0,.2a6,6,0,0,0-4.48,5.8,4.49,4.49,0,0,0,0,.64,6,6,0,0,0-4.57-2.11,6,6,0,0,0-4.37,1.9A33.55,33.55,0,0,0,83.86,65.47Z"/><path class="cls-5" d="M54.56,13.68,50.9,19.51a33.48,33.48,0,0,1,8.31.58l1.12-5.71A41.27,41.27,0,0,0,54.56,13.68Z"/><path class="cls-6" d="M63.15,0,59.21,20.09a33.48,33.48,0,0,0-8.31-.58l3.66-5.83Z"/><path class="cls-7" d="M39.65,89.61A39.14,39.14,0,0,1,13.73,51h0L0,42.4l20.15,4a33.79,33.79,0,0,0-.58,8.34,33.38,33.38,0,0,0,18.9,28.13Z"/><path class="cls-6" d="M89.66,65.93A39.14,39.14,0,0,1,51.07,91.85h0l-8.61,13.73,2.83-14.43,1.13-5.72A33.37,33.37,0,0,0,82.87,67.12Z"/><path class="cls-7" d="M105.63,63.13l-20.15-4a33.76,33.76,0,0,0,.58-8.34,33.39,33.39,0,0,0-13.57-25,34.79,34.79,0,0,0-5.33-3.19L66,15.92a39.79,39.79,0,0,1,7.73,3.76A39.17,39.17,0,0,1,91.9,54.51Z"/><path class="cls-6" d="M54.56,13.68,50.9,19.51A33.43,33.43,0,0,0,26,33.06a33.89,33.89,0,0,0-3.2,5.36L16,39.6A39.16,39.16,0,0,1,54.56,13.68Z"/><path class="cls-4" d="M57.68,48.21l-5.36-1.54,14.89-8.51s9.37-.08,6.47,3.66S52.15,56.55,50.79,56.55s-10.72,1.1-12.6,1.1a1.3,1.3,0,0,1-.89-1.19l-12-.51.85-.85,12.38-.43,2.94-1.83L12.83,50,11.6,48.67s-.17-1.27,1.23-.55a4.35,4.35,0,0,0,2.73.55C16.36,48.67,55.51,49.18,57.68,48.21Z"/><path class="cls-4" d="M36.92,48.42a27.6,27.6,0,0,1-1.41-3.92c-.17-1.06,1.75-.93,1.75-.93l3.23,3.57Z"/><path class="cls-4" d="M67.64,49.35l-9.79,4.26L77.3,52a22.55,22.55,0,0,0,4.51-2c.34-.69-1.45-1.07-1.45-1.07l-.93.68Z"/></g></g></svg>